# xmcd
#
# Track frame offsets:
#	150
#	15220
#	34471
#	48745
#	63338
#	75404
#	94158
#	108921
#	124231
#	141385
#	155313
#	177268
#
# Disc length: 2619 seconds
#
# Revision: 0
# Processed by: cddbd v1.5.1PL0 Copyright (c) Steve Scherf et al.
# Submitted via: dBpowerAMP V4.0
#
DISCID=990a390c
DTITLE=Thomas Schöffl - Where Comfort Lies
DYEAR=1900
DGENRE=Alternative
TTITLE0=Coming Up
TTITLE1=Shine
TTITLE2=Get Away
TTITLE3=One Try
TTITLE4=Better Man
TTITLE5=I Don't Mind
TTITLE6=Freedom Comes
TTITLE7=It Is Fine (After All)
TTITLE8=Written In My Face
TTITLE9=Soul To Sell
TTITLE10=Behind The Sun
TTITLE11=Scar On My Heart
EXTD=
EXTT0=
EXTT1=
EXTT2=
EXTT3=
EXTT4=
EXTT5=
EXTT6=
EXTT7=
EXTT8=
EXTT9=
EXTT10=
EXTT11=
PLAYORDER=
